<mxfile host="app.diagrams.net" agent="Mozilla/5.0 (Windows NT 10.0; Win64; x64) AppleWebKit/537.36 (KHTML, like Gecko) Chrome/135.0.0.0 Safari/537.36" version="26.2.12">
  <diagram name="Page-1" id="PGyEtpBHGc2rgO0zSy-d">
    <mxGraphModel dx="2040" dy="1061" grid="0" gridSize="10" guides="1" tooltips="1" connect="1" arrows="1" fold="1" page="1" pageScale="1" pageWidth="827" pageHeight="1169" math="0" shadow="0">
      <root>
        <mxCell id="0" />
        <mxCell id="1" parent="0" />
        <mxCell id="Ysg3iqIvXeeo9fuWZfi6-7" value="&lt;h2&gt;Frame 6: 60 bytes on wire, 60 bytes captured&lt;br&gt;Ethernet II,&amp;nbsp;&lt;br&gt;Source: (0a:00:27:00:00:05)&lt;br&gt;Type: ARP (0x0806)&lt;br&gt;&amp;nbsp;[Stream index: 0]&lt;br&gt;Destination: (08:00:27:fc:f1:76)&lt;/h2&gt;" style="whiteSpace=wrap;html=1;aspect=fixed;align=left;" vertex="1" parent="1">
          <mxGeometry x="100" y="278" width="263" height="263" as="geometry" />
        </mxCell>
        <mxCell id="Ysg3iqIvXeeo9fuWZfi6-10" value="&lt;h1&gt;Ethernet Header&lt;/h1&gt;" style="rounded=0;whiteSpace=wrap;html=1;" vertex="1" parent="1">
          <mxGeometry x="99" y="219" width="264" height="59" as="geometry" />
        </mxCell>
        <mxCell id="Ysg3iqIvXeeo9fuWZfi6-13" value="&lt;h3&gt;Address Resolution Protocol (request)&lt;br&gt;Hardware type: Ethernet (1)&lt;br&gt;Protocol type: IPv4 (0x0800)&lt;br&gt;Hardware size: 6&lt;br&gt;Protocol size: 4&lt;br&gt;Opcode: request (1)&lt;br&gt;Sender MAC address: (0a:00:27:00:00:05)&lt;br&gt;Sender IP address: 192.168.56.1&lt;br&gt;Target MAC address: (08:00:27:fc:f1:76)&lt;br&gt;Target IP address: 192.168.56.2&lt;/h3&gt;&lt;div&gt;&lt;br&gt;&lt;/div&gt;" style="whiteSpace=wrap;html=1;aspect=fixed;align=left;" vertex="1" parent="1">
          <mxGeometry x="100" y="600" width="263" height="263" as="geometry" />
        </mxCell>
        <mxCell id="Ysg3iqIvXeeo9fuWZfi6-14" value="&lt;h1&gt;Address Resolution Protocol (request)&lt;/h1&gt;" style="rounded=0;whiteSpace=wrap;html=1;" vertex="1" parent="1">
          <mxGeometry x="99" y="541" width="264" height="59" as="geometry" />
        </mxCell>
        <mxCell id="Ysg3iqIvXeeo9fuWZfi6-15" value="&lt;h1&gt;Windows Host&lt;/h1&gt;" style="whiteSpace=wrap;html=1;aspect=fixed;" vertex="1" parent="1">
          <mxGeometry x="524" y="263" width="155" height="155" as="geometry" />
        </mxCell>
        <mxCell id="Ysg3iqIvXeeo9fuWZfi6-16" value="&lt;h1&gt;Switch&lt;/h1&gt;" style="rounded=0;whiteSpace=wrap;html=1;fillColor=default;strokeColor=default;gradientColor=none;" vertex="1" parent="1">
          <mxGeometry x="541.5" y="468" width="120" height="60" as="geometry" />
        </mxCell>
        <mxCell id="Ysg3iqIvXeeo9fuWZfi6-19" value="&lt;h1&gt;OpenWRT&lt;/h1&gt;" style="whiteSpace=wrap;html=1;aspect=fixed;" vertex="1" parent="1">
          <mxGeometry x="524" y="577" width="155" height="155" as="geometry" />
        </mxCell>
        <mxCell id="Ysg3iqIvXeeo9fuWZfi6-23" value="" style="endArrow=none;html=1;rounded=0;entryX=0.529;entryY=0.983;entryDx=0;entryDy=0;entryPerimeter=0;exitX=0.524;exitY=0.003;exitDx=0;exitDy=0;exitPerimeter=0;" edge="1" parent="1" source="Ysg3iqIvXeeo9fuWZfi6-16" target="Ysg3iqIvXeeo9fuWZfi6-15">
          <mxGeometry width="50" height="50" relative="1" as="geometry">
            <mxPoint x="607" y="466" as="sourcePoint" />
            <mxPoint x="607" y="420" as="targetPoint" />
          </mxGeometry>
        </mxCell>
        <mxCell id="Ysg3iqIvXeeo9fuWZfi6-24" value="" style="endArrow=none;html=1;rounded=0;entryX=0.529;entryY=0.983;entryDx=0;entryDy=0;entryPerimeter=0;exitX=0.485;exitY=-0.003;exitDx=0;exitDy=0;exitPerimeter=0;" edge="1" parent="1" source="Ysg3iqIvXeeo9fuWZfi6-19">
          <mxGeometry width="50" height="50" relative="1" as="geometry">
            <mxPoint x="598" y="576" as="sourcePoint" />
            <mxPoint x="599" y="528" as="targetPoint" />
          </mxGeometry>
        </mxCell>
      </root>
    </mxGraphModel>
  </diagram>
</mxfile>
